# xmcd
#
# Track frame offsets: 
#        150
#        26787
#        45212
#        67115
#        83022
#        107237
#        130425
#        156035
#        191682
#        211177
#
# Disc length: 3250 seconds
#
# Revision: 4
# Processed by: cddbd v1.5.2PL0 Copyright (c) Steve Scherf et al.
# Submitted via: ExactAudioCopy v1.3
#
DISCID=850cb00a
DTITLE=Kirk Franklin - Kirk Franklin and The Family
DYEAR=1993
DGENRE=Gospel
TTITLE0=Why We Sing
TTITLE1=He's Able 
TTITLE2=Silver and Gold
TTITLE3=Call on the Lord
TTITLE4=Real Love
TTITLE5=He Can Handle It
TTITLE6=A Letter from my Friend
TTITLE7=The Family Worship Medley
TTITLE8=Speak to Me
TTITLE9=Till We Meet Again
EXTD=
EXTT0=
EXTT1=
EXTT2=
EXTT3=
EXTT4=
EXTT5=
EXTT6=
EXTT7=
EXTT8=
EXTT9=
PLAYORDER=
